<svg width="48" height="48" viewBox="0 0 48 48" fill="none" xmlns="http://www.w3.org/2000/svg">
  <!-- Background Circle -->
  <circle cx="24" cy="24" r="24" fill="url(#gradient1)"/>
  
  <!-- Paw Print -->
  <g transform="translate(12, 10)">
    <!-- Main Pad -->
    <ellipse cx="12" cy="18" rx="5" ry="6" fill="white" opacity="0.95"/>
    
    <!-- Top Left Toe -->
    <ellipse cx="6" cy="10" rx="3" ry="3.5" fill="white" opacity="0.95" transform="rotate(-15 6 10)"/>
    
    <!-- Top Center Toe -->
    <ellipse cx="12" cy="8" rx="3" ry="3.5" fill="white" opacity="0.95"/>
    
    <!-- Top Right Toe -->
    <ellipse cx="18" cy="10" rx="3" ry="3.5" fill="white" opacity="0.95" transform="rotate(15 18 10)"/>
    
    <!-- Small Heart at center -->
    <path d="M 12 14 C 12 14, 10 12, 9 11 C 8 10, 8 9, 9 8.5 C 10 8, 11 8.5, 12 9.5 C 13 8.5, 14 8, 15 8.5 C 16 9, 16 10, 15 11 C 14 12, 12 14, 12 14 Z" fill="#EF4444" opacity="0.8"/>
  </g>
  
  <!-- Gradient Definition -->
  <defs>
    <linearGradient id="gradient1" x1="0%" y1="0%" x2="100%" y2="100%">
      <stop offset="0%" style="stop-color:#2563EB;stop-opacity:1" />
      <stop offset="100%" style="stop-color:#1D4ED8;stop-opacity:1" />
    </linearGradient>
  </defs>
</svg>
